<?xml version="1.0" encoding="iso-8859-1"?>
<!-- Generator: Adobe Illustrator 19.0.0, SVG Export Plug-In . SVG Version: 6.00 Build 0)  -->
<svg version="1.1" id="Capa_1" xmlns="http://www.w3.org/2000/svg" xmlns:xlink="http://www.w3.org/1999/xlink" x="0px" y="0px"
	 viewBox="0 0 512 512" style="enable-background:new 0 0 512 512;" xml:space="preserve">
<g>
	<g>
		<g>
			<path d="M486.4,68.267h-93.867v-51.2C392.524,7.645,384.888,0.009,375.467,0H136.533c-9.422,0.009-17.057,7.645-17.067,17.067
				v51.2H25.6C11.468,68.282,0.015,79.735,0,93.867v324.267c0.015,14.132,11.468,25.585,25.6,25.6h164.999l-17.5,51.2h-10.965
				c-4.713,0-8.533,3.82-8.533,8.533s3.82,8.533,8.533,8.533h187.733c4.713,0,8.533-3.82,8.533-8.533s-3.82-8.533-8.533-8.533
				h-10.965l-17.5-51.2H486.4c14.132-0.015,25.585-11.468,25.6-25.6V93.867C511.985,79.735,500.532,68.282,486.4,68.267z
				 M136.533,17.067h238.933v307.2H136.533V17.067z M191.133,494.933l17.5-51.2h94.733l17.5,51.2H191.133z M494.933,418.133
				c-0.006,4.71-3.823,8.527-8.533,8.533H25.6c-4.71-0.006-8.527-3.823-8.533-8.533v-42.667h477.867V418.133z M494.933,358.4H17.067
				V93.867c0.006-4.71,3.823-8.527,8.533-8.533h93.867v238.933H102.4V110.933c0-4.713-3.821-8.533-8.533-8.533h-51.2
				c-4.713,0-8.533,3.82-8.533,8.533V332.8c0,4.713,3.82,8.533,8.533,8.533h426.667c4.713,0,8.533-3.821,8.533-8.533V110.933
				c0-4.713-3.82-8.533-8.533-8.533h-51.2c-4.713,0-8.533,3.82-8.533,8.533v213.333h-17.067V85.333H486.4
				c4.71,0.006,8.527,3.823,8.533,8.533V358.4z M76.8,162.133h8.533V179.2H76.8c-4.713,0-8.533,3.82-8.533,8.533
				s3.82,8.533,8.533,8.533h8.533v17.067H76.8c-4.713,0-8.533,3.82-8.533,8.533s3.82,8.533,8.533,8.533h8.533v17.067H76.8
				c-4.713,0-8.533,3.82-8.533,8.533s3.82,8.533,8.533,8.533h8.533V281.6H76.8c-4.713,0-8.533,3.82-8.533,8.533
				s3.82,8.533,8.533,8.533h8.533v25.6H51.2v-204.8h34.133v25.6H76.8c-4.713,0-8.533,3.821-8.533,8.533
				C68.267,158.313,72.087,162.133,76.8,162.133z M460.8,162.133v162.133h-34.133V162.133H460.8z M426.667,145.067v-25.6H460.8v25.6
				H426.667z"/>
			<path d="M162.133,76.8H281.6c4.713,0,8.533-3.82,8.533-8.533v-25.6c0-4.713-3.82-8.533-8.533-8.533H162.133
				c-4.713,0-8.533,3.82-8.533,8.533v25.6C153.6,72.979,157.421,76.8,162.133,76.8z M170.667,51.2h102.4v8.533h-102.4V51.2z"/>
			<path d="M154.11,164.661c0.173,0.547,0.403,1.075,0.687,1.574c0.1,0.269,0.215,0.533,0.344,0.79
				c0.121,0.173,0.323,0.234,0.455,0.396c1.574,2.017,3.979,3.211,6.537,3.246h85.333c2.531-0.144,4.893-1.317,6.537-3.246
				c0.131-0.161,0.333-0.222,0.455-0.396c0.129-0.257,0.244-0.52,0.344-0.79c0.57-1,0.919-2.109,1.026-3.255
				c0.072-0.279,0.13-0.562,0.171-0.847V102.4c-0.042-0.285-0.099-0.568-0.171-0.847c-0.107-1.146-0.457-2.255-1.026-3.255
				c-0.1-0.269-0.215-0.533-0.344-0.79c-0.144-0.206-0.365-0.309-0.524-0.498c-1.462-1.699-3.519-2.772-5.748-2.998
				c-0.25-0.022-0.464-0.145-0.719-0.145h-85.333c-0.255,0-0.47,0.123-0.719,0.145c-1.106,0.126-2.184,0.437-3.187,0.92
				c-0.964,0.546-1.83,1.249-2.563,2.08c-0.158,0.188-0.378,0.292-0.522,0.496c-0.129,0.257-0.244,0.52-0.344,0.79
				c-0.57,1-0.919,2.109-1.026,3.255c-0.072,0.279-0.13,0.562-0.171,0.848v59.733c0.042,0.285,0.099,0.568,0.171,0.847
				C153.825,163.551,153.939,164.115,154.11,164.661z M189.204,153.6l15.596-10.918l15.596,10.918H189.204z M238.933,145.744
				l-19.254-13.478l19.254-13.478V145.744z M220.396,110.933L204.8,121.851l-15.596-10.918H220.396z M170.667,118.789l19.254,13.478
				l-19.254,13.478V118.789z"/>
			<path d="M154.11,258.528c0.173,0.547,0.403,1.075,0.687,1.574c0.1,0.269,0.215,0.533,0.344,0.79
				c0.121,0.173,0.323,0.234,0.455,0.396c1.574,2.017,3.979,3.211,6.537,3.246h85.333c2.531-0.144,4.893-1.317,6.537-3.246
				c0.131-0.161,0.333-0.222,0.455-0.396c0.129-0.257,0.244-0.52,0.344-0.79c0.57-1,0.919-2.109,1.026-3.255
				c0.072-0.279,0.13-0.562,0.171-0.847v-59.733c-0.042-0.285-0.099-0.568-0.171-0.847c-0.107-1.146-0.457-2.255-1.026-3.255
				c-0.1-0.269-0.215-0.533-0.344-0.79c-0.144-0.206-0.365-0.31-0.524-0.499c-1.463-1.701-3.523-2.775-5.755-2.999
				c-0.247-0.021-0.46-0.144-0.713-0.144h-85.333c-0.253,0-0.465,0.122-0.712,0.144c-0.573,0.055-1.138,0.169-1.688,0.341
				c-1.029,0.266-1.984,0.761-2.794,1.448c-0.467,0.358-0.895,0.764-1.276,1.213c-0.158,0.188-0.378,0.291-0.522,0.496
				c-0.129,0.257-0.244,0.52-0.344,0.79c-0.57,1-0.919,2.109-1.026,3.255c-0.072,0.279-0.13,0.562-0.171,0.847V256
				c0.042,0.285,0.099,0.568,0.171,0.847C153.825,257.418,153.939,257.981,154.11,258.528z M189.204,247.467l15.596-10.918
				l15.596,10.918H189.204z M238.933,239.611l-19.254-13.478l19.254-13.478V239.611z M220.396,204.8L204.8,215.718L189.204,204.8
				H220.396z M170.667,212.656l19.254,13.478l-19.254,13.478V212.656z"/>
			<path d="M273.067,102.4c0,4.713,3.82,8.533,8.533,8.533h42.667c4.713,0,8.533-3.82,8.533-8.533s-3.82-8.533-8.533-8.533H281.6
				C276.887,93.867,273.067,97.687,273.067,102.4z"/>
			<path d="M358.4,128h-76.8c-4.713,0-8.533,3.82-8.533,8.533s3.82,8.533,8.533,8.533h76.8c4.713,0,8.533-3.82,8.533-8.533
				S363.113,128,358.4,128z"/>
			<path d="M281.6,204.8h42.667c4.713,0,8.533-3.82,8.533-8.533s-3.82-8.533-8.533-8.533H281.6c-4.713,0-8.533,3.82-8.533,8.533
				S276.887,204.8,281.6,204.8z"/>
			<path d="M358.4,221.867h-76.8c-4.713,0-8.533,3.82-8.533,8.533s3.82,8.533,8.533,8.533h76.8c4.713,0,8.533-3.82,8.533-8.533
				S363.113,221.867,358.4,221.867z"/>
			<path d="M358.4,281.6H162.133c-4.713,0-8.533,3.82-8.533,8.533s3.82,8.533,8.533,8.533H358.4c4.713,0,8.533-3.82,8.533-8.533
				S363.113,281.6,358.4,281.6z"/>
			<path d="M440.487,195.584c1.014,0.479,2.126,0.713,3.246,0.683c3.45-0.014,6.556-2.096,7.879-5.282
				c1.323-3.187,0.606-6.856-1.82-9.31c-2.453-2.425-6.125-3.133-9.304-1.796c-2.139,0.784-3.824,2.469-4.608,4.608
				c-0.437,1.027-0.668,2.13-0.68,3.246c0.032,2.259,0.916,4.423,2.475,6.059C438.504,194.544,439.455,195.15,440.487,195.584z"/>
			<path d="M440.487,229.717c1.027,0.438,2.13,0.67,3.246,0.683c2.27,0.022,4.453-0.87,6.058-2.475
				c1.605-1.605,2.497-3.788,2.475-6.058c-0.02-0.573-0.077-1.143-0.171-1.708c-0.095-0.535-0.268-1.053-0.513-1.537
				c-0.188-0.543-0.448-1.058-0.771-1.533c-0.312-0.448-0.653-0.876-1.021-1.279c-2.493-2.347-6.116-3.046-9.304-1.796
				c-1.033,0.434-1.985,1.041-2.813,1.796c-3.3,3.365-3.3,8.752,0,12.117C438.504,228.676,439.455,229.282,440.487,229.717z"/>
			<path d="M440.488,248.146c-2.139,0.784-3.824,2.469-4.608,4.608c-0.437,1.027-0.668,2.13-0.68,3.246
				c0.032,2.259,0.916,4.423,2.475,6.059c0.83,0.752,1.781,1.358,2.813,1.792c1.014,0.479,2.126,0.712,3.246,0.683
				c2.27,0.022,4.453-0.87,6.058-2.475c1.605-1.605,2.497-3.788,2.475-6.058c0.03-1.12-0.204-2.232-0.683-3.246
				c-0.434-1.032-1.04-1.983-1.791-2.813C447.339,247.517,443.667,246.808,440.488,248.146z"/>
			<path d="M440.487,297.983c1.027,0.438,2.13,0.67,3.246,0.683c2.259-0.034,4.422-0.918,6.059-2.475
				c0.366-0.405,0.707-0.833,1.021-1.279c0.324-0.476,0.583-0.993,0.771-1.538c0.245-0.485,0.418-1.003,0.513-1.538
				c0.098-0.563,0.155-1.133,0.17-1.704c-0.033-2.259-0.917-4.422-2.475-6.059c-2.453-2.425-6.125-3.133-9.304-1.796
				c-1.033,0.434-1.984,1.041-2.813,1.796c-3.3,3.365-3.3,8.752,0,12.117C438.504,296.943,439.455,297.549,440.487,297.983z"/>
		</g>
	</g>
</g>
<g>
</g>
<g>
</g>
<g>
</g>
<g>
</g>
<g>
</g>
<g>
</g>
<g>
</g>
<g>
</g>
<g>
</g>
<g>
</g>
<g>
</g>
<g>
</g>
<g>
</g>
<g>
</g>
<g>
</g>
</svg>
